Coordinates
version=1
nRows=26
nColumns=30
inDegrees=yes

Units are S.I. units (second, meters, Newtons, ...)
Angles are in degrees.

endheader
time	floatyaw	floatroll	floatpitch	floatx	floaty	floatz	pro_sup_l	deviation_l	flexion_l	cmc_flexion_l	cmc_abduction_l	mp_flexion_l	ip_flexion_l	2mcp_flexion_l	2mcp_abduction_l	2pm_flexion_l	2md_flexion_l	3mcp_flexion_l	3mcp_abduction_l	3pm_flexion_l	3md_flexion_l	4mcp_flexion_l	4mcp_abduction_l	4pm_flexion_l	4md_flexion_l	5mcp_flexion_l	5mcp_abduction_l	5pm_flexion_l	5md_flexion_l
-0.995000	-160.147433	-5.066637	-73.570646	0.066198	-0.176632	-0.028567	92.760501	-0.220008	-1.512288	14.706426	-0.682061	-25.341598	-41.173514	29.876798	6.796435	42.404198	29.719728	25.455346	3.976377	43.016427	28.477047	15.317832	-4.398124	50.619426	35.164370	-0.081658	-7.553835	62.037693	42.773142
-0.985000	-160.147433	-5.066637	-73.570646	0.065646	-0.176456	-0.029072	92.398845	-0.517264	-1.447058	14.766858	-0.960791	-25.272949	-41.186387	30.158292	6.925107	42.513020	29.857075	25.897308	4.006134	43.081877	28.539769	15.642841	-4.448761	50.791900	35.333051	-0.136213	-7.536493	62.394434	42.970456
-0.975000	-160.147433	-5.066637	-73.570646	0.065182	-0.176243	-0.029530	92.062816	-0.806797	-1.453093	14.866200	-1.233836	-25.198629	-41.223296	30.537099	7.106606	42.635672	30.051215	26.453353	4.045605	43.199897	28.630602	16.053906	-4.504029	51.027187	35.572980	-0.162524	-7.552195	62.825648	43.199435
-0.965000	-160.147433	-5.066637	-73.570646	0.064834	-0.176007	-0.029898	91.771732	-1.056951	-1.522628	14.977052	-1.445732	-25.134349	-41.278814	30.927881	7.306404	42.742248	30.273062	27.015606	4.090953	43.360147	28.741512	16.479120	-4.553372	51.284298	35.843382	-0.158032	-7.604665	63.251337	43.417239
-0.955000	-160.147433	-5.066637	-73.570646	0.064620	-0.175764	-0.030143	91.538703	-1.240070	-1.622230	15.059170	-1.564857	-25.096584	-41.342135	31.250576	7.481226	42.805997	30.478469	27.471642	4.137940	43.539120	28.859259	16.838710	-4.588090	51.513624	36.091968	-0.132108	-7.688969	63.585904	43.583665
-0.945000	-160.147433	-5.066637	-73.570646	0.064536	-0.175526	-0.030259	91.361689	-1.344593	-1.710730	15.081645	-1.596589	-25.092104	-41.400226	31.461059	7.596688	42.812524	30.624723	27.747741	4.182628	43.706656	28.969206	17.073564	-4.604472	51.676236	36.276444	-0.102834	-7.793531	63.771719	43.678404
-0.935000	-160.147433	-5.066637	-73.570646	0.064554	-0.175303	-0.030266	91.224259	-1.379849	-1.758989	15.036875	-1.575583	-25.112677	-41.440812	31.561227	7.640737	42.763960	30.688694	27.832930	4.221419	43.835816	29.060363	17.164518	-4.604605	51.758065	36.381126	-0.088908	-7.903398	63.799740	43.709513
-0.925000	-160.147433	-5.066637	-73.570646	0.064631	-0.175104	-0.030206	91.104707	-1.371178	-1.759926	14.939308	-1.544519	-25.139278	-41.455250	31.586778	7.625854	42.676667	30.676325	27.773549	4.251060	43.911368	29.129244	17.133888	-4.594665	51.771340	36.419541	-0.101537	-8.003724	63.707059	43.708677
-0.915000	-160.147433	-5.066637	-73.570646	0.064724	-0.174935	-0.030124	90.986824	-1.348873	-1.725916	14.813673	-1.533796	-25.152575	-41.440922	31.583651	7.579981	42.573571	30.617975	27.645156	4.269201	43.933027	29.180228	17.030794	-4.581804	51.743310	36.422750	-0.140655	-8.082973	63.555038	43.715785
-0.905000	-160.147433	-5.066637	-73.570646	0.064799	-0.174801	-0.030054	90.866044	-1.336832	-1.678524	14.682757	-1.552937	-25.142343	-41.402377	31.587335	7.532354	42.474671	30.552752	27.518891	4.275343	43.912370	29.221764	16.909436	-4.571303	51.700111	36.421639	-0.196560	-8.135253	63.401627	43.760576
-0.895000	-160.147433	-5.066637	-73.570646	0.064843	-0.174702	-0.030016	90.748978	-1.345593	-1.637592	14.561559	-1.594854	-25.110521	-41.350505	31.613490	7.502086	42.390413	30.510820	27.438306	4.271451	43.865912	29.260507	16.810711	-4.565262	51.655990	36.433614	-0.254920	-8.161006	63.282096	43.850289
-0.885000	-160.147433	-5.066637	-73.570646	0.064860	-0.174635	-0.030009	90.648328	-1.371688	-1.614427	14.458011	-1.646312	-25.067670	-41.299430	31.659941	7.494314	42.321086	30.502572	27.413451	4.261647	43.808845	29.297262	16.753462	-4.563110	51.613168	36.459541	-0.302121	-8.165765	63.205079	43.968812
-0.875000	-160.147433	-5.066637	-73.570646	0.064861	-0.174596	-0.030024	90.576376	-1.402459	-1.610305	14.376281	-1.696777	-25.026267	-41.261715	31.714682	7.503537	42.261793	30.518800	27.429292	4.250910	43.752487	29.327409	16.735720	-4.563147	51.569629	36.489759	-0.329170	-8.157581	63.161279	44.086589
-0.865000	-160.147433	-5.066637	-73.570646	0.064859	-0.174577	-0.030046	90.539616	-1.423599	-1.619026	14.318740	-1.741774	-24.994742	-41.243648	31.764011	7.520133	42.209076	30.540012	27.460375	4.243327	43.704827	29.345008	16.742285	-4.563970	51.527123	36.513332	-0.333895	-8.144298	63.136598	44.175069
-0.855000	-160.147433	-5.066637	-73.570646	0.064863	-0.174573	-0.030061	90.535989	-1.425916	-1.631233	14.285389	-1.781423	-24.974791	-41.242995	31.797629	7.535843	42.164513	30.548825	27.483996	4.240738	43.671381	29.347318	16.754101	-4.565009	51.493131	36.524730	-0.321388	-8.131662	63.121671	44.218104
-0.845000	-160.147433	-5.066637	-73.570646	0.064875	-0.174577	-0.030064	90.555364	-1.408672	-1.638506	14.272279	-1.816861	-24.962610	-41.250794	31.810624	7.546264	42.133213	30.538616	27.487550	4.242438	43.654866	29.336857	16.756071	-4.566217	51.476323	36.525345	-0.302229	-8.122707	63.114256	44.215744
-0.835000	-160.147433	-5.066637	-73.570646	0.064891	-0.174586	-0.030053	90.583060	-1.378680	-1.636082	14.271460	-1.847367	-24.952824	-41.256530	31.803683	7.550732	42.119030	30.514535	27.469526	4.246012	43.654617	29.320377	16.741495	-4.567469	51.480216	36.520782	-0.288403	-8.118200	63.115962	44.180745
-0.825000	-160.147433	-5.066637	-73.570646	0.064906	-0.174597	-0.030035	90.605222	-1.346232	-1.623749	14.273603	-1.870092	-24.942413	-41.253806	31.782351	7.550940	42.120464	30.487872	27.436141	4.248804	43.667124	29.305957	16.712592	-4.568287	51.500258	36.516733	-0.288301	-8.117546	63.127575	44.131418
-0.815000	-160.147433	-5.066637	-73.570646	0.064917	-0.174607	-0.030016	90.613886	-1.320138	-1.604978	14.271963	-1.882474	-24.932127	-41.243218	31.755282	7.549387	42.130220	30.468444	27.396517	4.249212	43.687567	29.299839	16.677669	-4.568061	51.526125	36.516031	-0.303234	-8.119609	63.146547	44.084754
-0.805000	-160.147433	-5.066637	-73.570646	0.064924	-0.174618	-0.030001	90.609380	-1.304206	-1.584799	14.264989	-1.885452	-24.924946	-41.231037	31.731441	7.548144	42.138518	30.459812	27.358805	4.247212	43.711016	29.304206	16.646515	-4.566485	51.546930	36.518063	-0.327376	-8.123148	63.167552	44.051990
-0.795000	-160.147433	-5.066637	-73.570646	0.064926	-0.174631	-0.029990	90.598836	-1.296579	-1.567394	14.255814	-1.884914	-24.923238	-41.225025	31.717046	7.548039	42.137718	30.459274	27.328384	4.243996	43.732530	29.316520	16.626024	-4.563804	51.555723	36.520203	-0.351169	-8.126933	63.184691	44.036901
-0.785000	-160.147433	-5.066637	-73.570646	0.064929	-0.174645	-0.029983	90.591595	-1.291854	-1.554498	14.249116	-1.889848	-24.926781	-41.230143	31.713581	7.548459	42.125503	30.461307	27.307778	4.241133	43.746880	29.330655	16.617861	-4.560690	51.551077	36.519963	-0.366179	-8.129790	63.193508	44.036463
-0.775000	-160.147433	-5.066637	-73.570646	0.064933	-0.174661	-0.029975	90.593967	-1.284591	-1.545246	14.247480	-1.907604	-24.932681	-41.246368	31.717810	7.547956	42.105166	30.461548	27.297173	4.239810	43.749193	29.339588	16.618804	-4.557906	51.535926	36.516548	-0.368767	-8.130835	63.191913	44.043460
-0.765000	-160.147433	-5.066637	-73.570646	0.064940	-0.174676	-0.029964	90.605972	-1.272298	-1.537295	14.249545	-1.938790	-24.936852	-41.269204	31.723773	7.545446	42.083215	30.458875	27.294695	4.240470	43.736781	29.338576	16.623042	-4.556032	51.515218	36.511192	-0.361018	-8.129872	63.180134	44.050168
-0.755000	-160.147433	-5.066637	-73.570646	0.064949	-0.174690	-0.029950	90.621534	-1.256502	-1.528404	14.250827	-1.975188	-24.936118	-41.291978	31.725830	7.541218	42.065703	30.454890	27.296603	4.242873	43.710892	29.327278	16.624911	-4.555368	51.493808	36.506376	-0.349084	-8.127583	63.160211	44.051735
-0.745000	-160.147433	-5.066637	-73.570646	0.064959	-0.174704	-0.029935	90.631755	-1.241592	-1.517510	14.246358	-2.002579	-24.929883	-41.308470	31.721344	7.536961	42.055205	30.451906	27.298108	4.246361	43.676859	29.309736	16.620790	-4.555952	51.475278	36.504606	-0.340226	-8.125192	63.135382	44.047982
